<mxfile host="app.diagrams.net" modified="2023-06-03T04:20:04.696Z" agent="Mozilla/5.0 (Windows NT 10.0; Win64; x64; rv:109.0) Gecko/20100101 Firefox/113.0" etag="TWTbwUKVGgSXljMgdqs2" version="21.3.7" type="github">
  <diagram name="Page-1" id="CtP5A3H-1j4lve8luICZ">
    <mxGraphModel dx="1707" dy="509" grid="1" gridSize="10" guides="1" tooltips="1" connect="1" arrows="1" fold="1" page="1" pageScale="1" pageWidth="827" pageHeight="1169" math="0" shadow="0">
      <root>
        <mxCell id="0" />
        <mxCell id="1" parent="0" />
        <mxCell id="1JnBQjhI5d_o_ywrE_VX-1" value="&lt;div&gt;&lt;br&gt;&lt;/div&gt;&lt;div&gt;&lt;br&gt;&lt;/div&gt;&lt;div&gt;Pasien&lt;/div&gt;" style="shape=actor;whiteSpace=wrap;html=1;" vertex="1" parent="1">
          <mxGeometry x="60" y="44" width="50" height="75" as="geometry" />
        </mxCell>
        <mxCell id="1JnBQjhI5d_o_ywrE_VX-2" value="Klinik" style="whiteSpace=wrap;html=1;aspect=fixed;" vertex="1" parent="1">
          <mxGeometry x="310" y="60" width="80" height="80" as="geometry" />
        </mxCell>
        <mxCell id="1JnBQjhI5d_o_ywrE_VX-3" value="&lt;div&gt;&lt;br&gt;&lt;/div&gt;&lt;div&gt;&lt;br&gt;&lt;/div&gt;&lt;div&gt;Perawat&lt;/div&gt;" style="shape=actor;whiteSpace=wrap;html=1;" vertex="1" parent="1">
          <mxGeometry x="323" y="205" width="53.33" height="80" as="geometry" />
        </mxCell>
        <mxCell id="1JnBQjhI5d_o_ywrE_VX-4" value="&lt;div&gt;&lt;br&gt;&lt;/div&gt;&lt;div&gt;&lt;br&gt;&lt;/div&gt;&lt;div&gt;Dokter&lt;br&gt;&lt;/div&gt;" style="shape=actor;whiteSpace=wrap;html=1;" vertex="1" parent="1">
          <mxGeometry x="53" y="204" width="54.67" height="82" as="geometry" />
        </mxCell>
        <mxCell id="1JnBQjhI5d_o_ywrE_VX-5" value="Apotek" style="whiteSpace=wrap;html=1;aspect=fixed;" vertex="1" parent="1">
          <mxGeometry x="160" y="330" width="80" height="80" as="geometry" />
        </mxCell>
        <mxCell id="1JnBQjhI5d_o_ywrE_VX-6" value="&lt;div&gt;Registrasi ke klinik&lt;/div&gt;" style="endArrow=classic;html=1;rounded=0;exitX=1;exitY=0.75;exitDx=0;exitDy=0;entryX=0;entryY=0.5;entryDx=0;entryDy=0;" edge="1" parent="1" source="1JnBQjhI5d_o_ywrE_VX-1" target="1JnBQjhI5d_o_ywrE_VX-2">
          <mxGeometry width="50" height="50" relative="1" as="geometry">
            <mxPoint x="390" y="300" as="sourcePoint" />
            <mxPoint x="440" y="250" as="targetPoint" />
          </mxGeometry>
        </mxCell>
        <mxCell id="1JnBQjhI5d_o_ywrE_VX-7" value="Diperiksa" style="endArrow=classic;html=1;rounded=0;exitX=0.5;exitY=1;exitDx=0;exitDy=0;entryX=0.5;entryY=0;entryDx=0;entryDy=0;" edge="1" parent="1" source="1JnBQjhI5d_o_ywrE_VX-2" target="1JnBQjhI5d_o_ywrE_VX-3">
          <mxGeometry width="50" height="50" relative="1" as="geometry">
            <mxPoint x="110" y="110" as="sourcePoint" />
            <mxPoint x="320" y="110" as="targetPoint" />
          </mxGeometry>
        </mxCell>
        <mxCell id="1JnBQjhI5d_o_ywrE_VX-8" value="Pemeriksaan Lanjutan" style="endArrow=classic;html=1;rounded=0;exitX=0;exitY=0.75;exitDx=0;exitDy=0;entryX=1;entryY=0.75;entryDx=0;entryDy=0;" edge="1" parent="1" source="1JnBQjhI5d_o_ywrE_VX-3" target="1JnBQjhI5d_o_ywrE_VX-4">
          <mxGeometry width="50" height="50" relative="1" as="geometry">
            <mxPoint x="360" y="150" as="sourcePoint" />
            <mxPoint x="360" y="230" as="targetPoint" />
            <Array as="points" />
          </mxGeometry>
        </mxCell>
        <mxCell id="1JnBQjhI5d_o_ywrE_VX-9" value="&lt;div&gt;Hasil Pemeriksaan&lt;/div&gt;&lt;div&gt;lanjutan&lt;/div&gt;" style="endArrow=classic;html=1;rounded=0;exitX=0.5;exitY=1;exitDx=0;exitDy=0;entryX=0;entryY=0.5;entryDx=0;entryDy=0;" edge="1" parent="1" source="1JnBQjhI5d_o_ywrE_VX-4" target="1JnBQjhI5d_o_ywrE_VX-5">
          <mxGeometry x="-0.22" y="10" width="50" height="50" relative="1" as="geometry">
            <mxPoint x="340" y="275" as="sourcePoint" />
            <mxPoint x="110" y="275" as="targetPoint" />
            <Array as="points">
              <mxPoint x="80" y="370" />
            </Array>
            <mxPoint as="offset" />
          </mxGeometry>
        </mxCell>
        <mxCell id="1JnBQjhI5d_o_ywrE_VX-10" value="&lt;div&gt;Pasien Menerima &lt;br&gt;&lt;/div&gt;&lt;div&gt;Obat dari apotek&lt;/div&gt;" style="endArrow=classic;html=1;rounded=0;exitX=0;exitY=1;exitDx=0;exitDy=0;entryX=0;entryY=0.75;entryDx=0;entryDy=0;" edge="1" parent="1" source="1JnBQjhI5d_o_ywrE_VX-5" target="1JnBQjhI5d_o_ywrE_VX-1">
          <mxGeometry x="0.617" width="50" height="50" relative="1" as="geometry">
            <mxPoint x="340" y="275" as="sourcePoint" />
            <mxPoint x="110" y="275" as="targetPoint" />
            <Array as="points">
              <mxPoint x="30" y="410" />
              <mxPoint x="30" y="100" />
            </Array>
            <mxPoint as="offset" />
          </mxGeometry>
        </mxCell>
      </root>
    </mxGraphModel>
  </diagram>
</mxfile>
